<svg width="58" height="58" viewBox="0 0 58 58" fill="none" xmlns="http://www.w3.org/2000/svg">
<rect width="57.0807" height="57.0807" rx="14.2702" fill="url(#paint0_linear_222_315)"/>
<path d="M26.5582 14.9819C23.4962 18.0455 22.9532 22.9011 23.043 26.5749C23.0478 26.7844 22.9723 26.9879 22.8318 27.1435C22.6914 27.2991 22.4967 27.3951 22.2877 27.4117C19.1726 27.6199 15.3676 28.2444 12.2321 29.914C11.1829 30.4753 10.7971 31.5407 11.0482 32.5122C11.2931 33.4388 12.079 34.196 13.1466 34.3961C14.6458 34.6694 16.1298 35.0202 17.5926 35.4472C18.2949 35.6594 18.9236 35.886 19.4339 36.1207C19.9626 36.3615 20.2913 36.5799 20.4587 36.7473C20.6261 36.9147 20.8424 37.2433 21.0833 37.7698C21.3181 38.2801 21.5426 38.9087 21.757 39.6129C22.1815 41.0171 22.5347 42.6417 22.8021 44.0562C23.0022 45.1236 23.7595 45.9135 24.6842 46.1543C25.6579 46.4095 26.7235 46.0237 27.2828 44.9705C28.9526 41.8396 29.5793 38.0352 29.7896 34.9206C29.8062 34.7117 29.9022 34.517 30.0578 34.3766C30.2134 34.2361 30.4169 34.1606 30.6265 34.1654C34.3009 34.2552 39.1593 33.7164 42.2212 30.6508C44.0421 28.8302 44.9485 26.4014 45.3628 24.0155C45.7793 21.6214 45.718 19.1844 45.5323 17.2393C45.4033 15.8064 44.7754 14.4642 43.7582 13.4467C42.7409 12.4292 41.3987 11.8009 39.9656 11.6714C38.0202 11.4857 35.5829 11.4265 33.1925 11.8408C30.8041 12.2552 28.377 13.1614 26.5582 14.9819ZM35.9809 16.629C36.387 16.629 36.7764 16.7903 37.0635 17.0774C37.3506 17.3645 37.5119 17.7538 37.5119 18.1598C37.5119 18.5658 37.3506 18.9551 37.0635 19.2422C36.7764 19.5293 36.387 19.6906 35.9809 19.6906C35.5749 19.6906 35.1855 19.5293 34.8983 19.2422C34.6112 18.9551 34.4499 18.5658 34.4499 18.1598C34.4499 17.7538 34.6112 17.3645 34.8983 17.0774C35.1855 16.7903 35.5749 16.629 35.9809 16.629Z" fill="#F5F5F5"/>
<defs>
<linearGradient id="paint0_linear_222_315" x1="0" y1="0" x2="57.0807" y2="57.0807" gradientUnits="userSpaceOnUse">
<stop stop-color="#5300DC"/>
<stop offset="1" stop-color="#11005B"/>
</linearGradient>
</defs>
</svg>
