<svg width="58" height="58" viewBox="0 0 58 58" fill="none" xmlns="http://www.w3.org/2000/svg">
<rect y="0.161377" width="57.0807" height="57.0807" rx="14.2702" fill="#110E31"/>
<path d="M26.5582 15.1433C23.4962 18.2069 22.9532 23.0625 23.043 26.7363C23.0478 26.9458 22.9723 27.1493 22.8318 27.3049C22.6914 27.4605 22.4967 27.5565 22.2877 27.5731C19.1726 27.7813 15.3676 28.4058 12.2321 30.0754C11.1829 30.6366 10.7971 31.7021 11.0482 32.6736C11.2931 33.6002 12.079 34.3574 13.1466 34.5574C14.6458 34.8308 16.1298 35.1816 17.5926 35.6086C18.2949 35.8208 18.9236 36.0474 19.4339 36.2821C19.9626 36.5229 20.2913 36.7413 20.4587 36.9087C20.6261 37.076 20.8424 37.4046 21.0833 37.9312C21.3181 38.4415 21.5426 39.0701 21.757 39.7743C22.1815 41.1785 22.5347 42.8031 22.8021 44.2175C23.0022 45.285 23.7595 46.0749 24.6842 46.3157C25.6579 46.5708 26.7235 46.1851 27.2828 45.1319C28.9526 42.001 29.5793 38.1966 29.7896 35.082C29.8062 34.873 29.9022 34.6784 30.0578 34.5379C30.2134 34.3975 30.4169 34.322 30.6265 34.3268C34.3009 34.4166 39.1593 33.8778 42.2212 30.8122C44.0421 28.9916 44.9485 26.5628 45.3628 24.1768C45.7793 21.7827 45.718 19.3458 45.5323 17.4007C45.4033 15.9678 44.7754 14.6256 43.7582 13.608C42.7409 12.5905 41.3987 11.9623 39.9656 11.8328C38.0202 11.6471 35.5829 11.5879 33.1925 12.0022C30.8041 12.4165 28.377 13.3227 26.5582 15.1433ZM35.9809 16.7904C36.387 16.7904 36.7764 16.9517 37.0635 17.2388C37.3506 17.5258 37.5119 17.9152 37.5119 18.3212C37.5119 18.7272 37.3506 19.1165 37.0635 19.4036C36.7764 19.6907 36.387 19.8519 35.9809 19.8519C35.5749 19.8519 35.1855 19.6907 34.8983 19.4036C34.6112 19.1165 34.4499 18.7272 34.4499 18.3212C34.4499 17.9152 34.6112 17.5258 34.8983 17.2388C35.1855 16.9517 35.5749 16.7904 35.9809 16.7904Z" fill="#F5F5F5"/>
</svg>
