<svg width="58" height="58" viewBox="0 0 58 58" fill="none" xmlns="http://www.w3.org/2000/svg">
<rect y="0.0806885" width="57.0807" height="57.0807" rx="14.2702" fill="#AC7AFF"/>
<path d="M26.5582 15.0626C23.4962 18.1262 22.9532 22.9818 23.043 26.6556C23.0478 26.8651 22.9723 27.0686 22.8318 27.2242C22.6914 27.3798 22.4967 27.4758 22.2877 27.4924C19.1726 27.7006 15.3676 28.3251 12.2321 29.9947C11.1829 30.556 10.7971 31.6214 11.0482 32.5929C11.2931 33.5195 12.079 34.2767 13.1466 34.4767C14.6458 34.7501 16.1298 35.1009 17.5926 35.5279C18.2949 35.7401 18.9236 35.9667 19.4339 36.2014C19.9626 36.4422 20.2913 36.6606 20.4587 36.828C20.6261 36.9954 20.8424 37.324 21.0833 37.8505C21.3181 38.3608 21.5426 38.9894 21.757 39.6936C22.1815 41.0978 22.5347 42.7224 22.8021 44.1369C23.0022 45.2043 23.7595 45.9942 24.6842 46.235C25.6579 46.4901 26.7235 46.1044 27.2828 45.0512C28.9526 41.9203 29.5793 38.1159 29.7896 35.0013C29.8062 34.7923 29.9022 34.5977 30.0578 34.4573C30.2134 34.3168 30.4169 34.2413 30.6265 34.2461C34.3009 34.3359 39.1593 33.7971 42.2212 30.7315C44.0421 28.9109 44.9485 26.4821 45.3628 24.0962C45.7793 21.7021 45.718 19.2651 45.5323 17.32C45.4033 15.8871 44.7754 14.5449 43.7582 13.5274C42.7409 12.5098 41.3987 11.8816 39.9656 11.7521C38.0202 11.5664 35.5829 11.5072 33.1925 11.9215C30.8041 12.3358 28.377 13.2421 26.5582 15.0626ZM35.9809 16.7097C36.387 16.7097 36.7764 16.871 37.0635 17.1581C37.3506 17.4452 37.5119 17.8345 37.5119 18.2405C37.5119 18.6465 37.3506 19.0358 37.0635 19.3229C36.7764 19.61 36.387 19.7713 35.9809 19.7713C35.5749 19.7713 35.1855 19.61 34.8983 19.3229C34.6112 19.0358 34.4499 18.6465 34.4499 18.2405C34.4499 17.8345 34.6112 17.4452 34.8983 17.1581C35.1855 16.871 35.5749 16.7097 35.9809 16.7097Z" fill="#F5F5F5"/>
</svg>
