<svg width="58" height="58" viewBox="0 0 58 58" fill="none" xmlns="http://www.w3.org/2000/svg">
<rect width="57.0807" height="57.0807" rx="14.2702" fill="url(#paint0_linear_222_394)"/>
<path d="M44.3898 29.8207H44.9333C45.0258 29.8223 45.1169 29.8433 45.2007 29.8824C45.2845 29.9214 45.3592 29.9777 45.4198 30.0474C45.4804 30.1172 45.5255 30.1989 45.5524 30.2872C45.5792 30.3756 45.5871 30.4685 45.5755 30.5601C45.0933 34.4652 43.2778 38.0853 40.4346 40.8116C37.5913 43.5378 33.8938 45.2038 29.964 45.5292C29.7906 43.5335 30.0347 41.5237 30.6808 39.6271C31.3269 37.7305 32.3608 35.9885 33.7171 34.5116C35.0734 33.0348 36.7224 31.8552 38.5597 31.0476C40.3969 30.2401 42.3823 29.8223 44.3898 29.8207ZM32.286 32.2033C33.869 30.608 35.7546 29.3432 37.8327 28.4828C39.9109 27.6223 42.1399 27.1834 44.3898 27.1917H44.9003C44.9941 27.1945 45.0873 27.1773 45.1738 27.1413C45.2603 27.1053 45.3382 27.0512 45.4021 26.9828C45.466 26.9143 45.5145 26.8331 45.5444 26.7444C45.5743 26.6558 45.5849 26.5618 45.5755 26.4687C45.1164 22.6664 43.3916 19.1278 40.6775 16.4197C37.9635 13.7116 34.417 11.9906 30.6063 11.5325C30.513 11.5231 30.4188 11.5337 30.3299 11.5635C30.2411 11.5934 30.1596 11.6418 30.091 11.7056C30.0225 11.7694 29.9683 11.847 29.9322 11.9333C29.8961 12.0197 29.8789 12.1127 29.8817 12.2062C29.9559 14.5369 29.5499 16.858 28.6888 19.0258C27.8277 21.1936 26.5298 23.162 24.8755 24.8091C23.2924 26.4044 21.4069 27.6692 19.3287 28.5296C17.2506 29.3901 15.0216 29.829 12.7716 29.8207H12.2611C12.1674 29.8179 12.0742 29.8351 11.9877 29.8711C11.9011 29.9071 11.8233 29.9612 11.7594 30.0296C11.6955 30.098 11.647 30.1793 11.617 30.268C11.5871 30.3566 11.5765 30.4506 11.5859 30.5437C12.0451 34.346 13.7698 37.8846 16.4839 40.5927C19.198 43.3008 22.7444 45.0218 26.5552 45.4799C26.6485 45.4893 26.7427 45.4787 26.8315 45.4489C26.9204 45.419 27.0018 45.3706 27.0704 45.3068C27.139 45.243 27.1932 45.1654 27.2293 45.0791C27.2654 44.9927 27.2826 44.8997 27.2798 44.8062C27.2055 42.4755 27.6116 40.1544 28.4727 37.9866C29.3338 35.8188 30.6317 33.8504 32.286 32.2033ZM23.0146 22.9524C24.4315 21.544 25.5394 19.857 26.268 17.9985C26.9966 16.1401 27.3299 14.1508 27.2468 12.1569C27.2408 12.0674 27.2165 11.9801 27.1755 11.9004C27.1344 11.8206 27.0774 11.7501 27.008 11.6932C26.9385 11.6362 26.8582 11.594 26.7718 11.5692C26.6855 11.5444 26.5949 11.5375 26.5058 11.5489C22.7102 12.0123 19.1793 13.7297 16.4754 16.4276C13.7716 19.1255 12.0503 22.6487 11.5859 26.4358C11.5745 26.5261 11.5819 26.6177 11.6077 26.7049C11.6336 26.7922 11.6773 26.8731 11.7361 26.9426C11.795 27.0121 11.8676 27.0687 11.9495 27.1087C12.0313 27.1488 12.1206 27.1714 12.2117 27.1752C14.207 27.2538 16.197 26.9192 18.0563 26.1924C19.9156 25.4656 21.6038 24.3624 23.0146 22.9524Z" fill="#F5F5F5"/>
<defs>
<linearGradient id="paint0_linear_222_394" x1="0" y1="0" x2="57.0807" y2="57.0807" gradientUnits="userSpaceOnUse">
<stop stop-color="#5300DC"/>
<stop offset="1" stop-color="#11005B"/>
</linearGradient>
</defs>
</svg>
