<svg width="58" height="58" viewBox="0 0 58 58" fill="none" xmlns="http://www.w3.org/2000/svg">
<rect y="0.161377" width="57.0807" height="57.0807" rx="14.2702" fill="#110E31"/>
<path d="M44.3898 29.9821H44.9333C45.0258 29.9837 45.1169 30.0047 45.2007 30.0437C45.2845 30.0828 45.3592 30.139 45.4198 30.2088C45.4804 30.2785 45.5255 30.3603 45.5524 30.4486C45.5792 30.5369 45.5871 30.6299 45.5755 30.7215C45.0933 34.6265 43.2778 38.2467 40.4346 40.9729C37.5913 43.6992 33.8938 45.3651 29.964 45.6906C29.7906 43.6949 30.0347 41.685 30.6808 39.7885C31.3269 37.8919 32.3608 36.1499 33.7171 34.673C35.0734 33.1961 36.7224 32.0165 38.5597 31.209C40.3969 30.4015 42.3823 29.9837 44.3898 29.9821ZM32.286 32.3646C33.869 30.7693 35.7546 29.5046 37.8327 28.6441C39.9109 27.7837 42.1399 27.3448 44.3898 27.353H44.9003C44.9941 27.3559 45.0873 27.3387 45.1738 27.3027C45.2603 27.2666 45.3382 27.2126 45.4021 27.1442C45.466 27.0757 45.5145 26.9945 45.5444 26.9058C45.5743 26.8171 45.5849 26.7231 45.5755 26.6301C45.1164 22.8277 43.3916 19.2891 40.6775 16.581C37.9635 13.8729 34.417 12.152 30.6063 11.6939C30.513 11.6845 30.4188 11.6951 30.3299 11.7249C30.2411 11.7548 30.1596 11.8032 30.091 11.867C30.0225 11.9307 29.9683 12.0084 29.9322 12.0947C29.8961 12.181 29.8789 12.2741 29.8817 12.3676C29.9559 14.6983 29.5499 17.0194 28.6888 19.1872C27.8277 21.355 26.5298 23.3234 24.8755 24.9705C23.2924 26.5658 21.4069 27.8305 19.3287 28.691C17.2506 29.5514 15.0216 29.9903 12.7716 29.9821H12.2611C12.1674 29.9793 12.0742 29.9965 11.9877 30.0325C11.9011 30.0685 11.8233 30.1225 11.7594 30.191C11.6955 30.2594 11.647 30.3407 11.617 30.4293C11.5871 30.518 11.5765 30.612 11.5859 30.7051C12.0451 34.5074 13.7698 38.046 16.4839 40.7541C19.198 43.4622 22.7444 45.1831 26.5552 45.6413C26.6485 45.6507 26.7427 45.6401 26.8315 45.6102C26.9204 45.5804 27.0018 45.532 27.0704 45.4682C27.139 45.4044 27.1932 45.3268 27.2293 45.2404C27.2654 45.1541 27.2826 45.0611 27.2798 44.9676C27.2055 42.6369 27.6116 40.3158 28.4727 38.1479C29.3338 35.9801 30.6317 34.0117 32.286 32.3646ZM23.0146 23.1137C24.4315 21.7053 25.5394 20.0184 26.268 18.1599C26.9966 16.3014 27.3299 14.3121 27.2468 12.3183C27.2408 12.2288 27.2165 12.1415 27.1755 12.0618C27.1344 11.982 27.0774 11.9115 27.008 11.8545C26.9385 11.7976 26.8582 11.7554 26.7718 11.7306C26.6855 11.7058 26.5949 11.6989 26.5058 11.7103C22.7102 12.1737 19.1793 13.8911 16.4754 16.589C13.7716 19.2869 12.0503 22.81 11.5859 26.5972C11.5745 26.6874 11.5819 26.7791 11.6077 26.8663C11.6336 26.9536 11.6773 27.0345 11.7361 27.104C11.795 27.1735 11.8676 27.2301 11.9495 27.2701C12.0313 27.3101 12.1206 27.3328 12.2117 27.3366C14.207 27.4152 16.197 27.0806 18.0563 26.3538C19.9156 25.627 21.6038 24.5238 23.0146 23.1137Z" fill="#F5F5F5"/>
</svg>
