<svg width="58" height="58" viewBox="0 0 58 58" fill="none" xmlns="http://www.w3.org/2000/svg">
<rect y="0.0806885" width="57.0807" height="57.0807" rx="14.2702" fill="#AC7AFF"/>
<path d="M44.3898 29.9014H44.9333C45.0258 29.903 45.1169 29.924 45.2007 29.963C45.2845 30.0021 45.3592 30.0583 45.4198 30.1281C45.4804 30.1979 45.5255 30.2796 45.5524 30.3679C45.5792 30.4562 45.5871 30.5492 45.5755 30.6408C45.0933 34.5458 43.2778 38.166 40.4346 40.8922C37.5913 43.6185 33.8938 45.2845 29.964 45.6099C29.7906 43.6142 30.0347 41.6044 30.6808 39.7078C31.3269 37.8112 32.3608 36.0692 33.7171 34.5923C35.0734 33.1154 36.7224 31.9358 38.5597 31.1283C40.3969 30.3208 42.3823 29.903 44.3898 29.9014ZM32.286 32.284C33.869 30.6887 35.7546 29.4239 37.8327 28.5634C39.9109 27.703 42.1399 27.2641 44.3898 27.2724H44.9003C44.9941 27.2752 45.0873 27.258 45.1738 27.222C45.2603 27.1859 45.3382 27.1319 45.4021 27.0635C45.466 26.995 45.5145 26.9138 45.5444 26.8251C45.5743 26.7365 45.5849 26.6424 45.5755 26.5494C45.1164 22.747 43.3916 19.2085 40.6775 16.5003C37.9635 13.7922 34.417 12.0713 30.6063 11.6132C30.513 11.6038 30.4188 11.6144 30.3299 11.6442C30.2411 11.6741 30.1596 11.7225 30.091 11.7863C30.0225 11.85 29.9683 11.9277 29.9322 12.014C29.8961 12.1003 29.8789 12.1934 29.8817 12.2869C29.9559 14.6176 29.5499 16.9387 28.6888 19.1065C27.8277 21.2743 26.5298 23.2427 24.8755 24.8898C23.2924 26.4851 21.4069 27.7499 19.3287 28.6103C17.2506 29.4708 15.0216 29.9097 12.7716 29.9014H12.2611C12.1674 29.8986 12.0742 29.9158 11.9877 29.9518C11.9011 29.9878 11.8233 30.0418 11.7594 30.1103C11.6955 30.1787 11.647 30.26 11.617 30.3486C11.5871 30.4373 11.5765 30.5313 11.5859 30.6244C12.0451 34.4267 13.7698 37.9653 16.4839 40.6734C19.198 43.3815 22.7444 45.1024 26.5552 45.5606C26.6485 45.57 26.7427 45.5594 26.8315 45.5295C26.9204 45.4997 27.0018 45.4513 27.0704 45.3875C27.139 45.3237 27.1932 45.2461 27.2293 45.1597C27.2654 45.0734 27.2826 44.9804 27.2798 44.8869C27.2055 42.5562 27.6116 40.2351 28.4727 38.0673C29.3338 35.8994 30.6317 33.9311 32.286 32.284ZM23.0146 23.033C24.4315 21.6246 25.5394 19.9377 26.268 18.0792C26.9966 16.2208 27.3299 14.2314 27.2468 12.2376C27.2408 12.1481 27.2165 12.0608 27.1755 11.9811C27.1344 11.9013 27.0774 11.8308 27.008 11.7739C26.9385 11.7169 26.8582 11.6747 26.7718 11.6499C26.6855 11.6251 26.5949 11.6182 26.5058 11.6296C22.7102 12.093 19.1793 13.8104 16.4754 16.5083C13.7716 19.2062 12.0503 22.7294 11.5859 26.5165C11.5745 26.6068 11.5819 26.6984 11.6077 26.7856C11.6336 26.8729 11.6773 26.9538 11.7361 27.0233C11.795 27.0928 11.8676 27.1494 11.9495 27.1894C12.0313 27.2295 12.1206 27.2521 12.2117 27.2559C14.207 27.3345 16.197 26.9999 18.0563 26.2731C19.9156 25.5463 21.6038 24.4431 23.0146 23.033Z" fill="#F5F5F5"/>
</svg>
