<svg width="58" height="58" viewBox="0 0 58 58" fill="none" xmlns="http://www.w3.org/2000/svg">
<rect y="0.161377" width="57.0807" height="57.0807" rx="14.2702" fill="#110E31"/>
<path d="M42.1128 28.5C42.1128 28.0975 42.0953 27.7125 42.0604 27.31L45.3124 24.8425C46.0117 24.3175 46.204 23.3375 45.7669 22.5675L42.4975 16.915C42.2878 16.5443 41.9488 16.2642 41.5454 16.1286C41.142 15.9929 40.7027 16.0112 40.312 16.18L36.553 17.7725C35.9061 17.3175 35.2242 16.915 34.5074 16.5825L34.0004 12.54C33.8955 11.665 33.1437 11 32.2695 11H25.748C24.8563 11 24.1045 11.665 23.9996 12.54L23.4926 16.5825C22.7758 16.915 22.0939 17.3175 21.447 17.7725L17.688 16.18C16.8837 15.83 15.9396 16.145 15.5025 16.915L12.2331 22.585C11.796 23.355 11.9883 24.3175 12.6876 24.86L15.9396 27.3275C15.8671 28.1133 15.8671 28.9042 15.9396 29.69L12.6876 32.1575C11.9883 32.6825 11.796 33.6625 12.2331 34.4325L15.5025 40.085C15.9396 40.855 16.8837 41.17 17.688 40.82L21.447 39.2275C22.0939 39.6825 22.7758 40.085 23.4926 40.4175L23.9996 44.46C24.1045 45.335 24.8563 46 25.7305 46H32.252C33.1262 46 33.878 45.335 33.9829 44.46L34.4899 40.4175C35.2067 40.085 35.8886 39.6825 36.5355 39.2275L40.2945 40.82C41.0988 41.17 42.0429 40.855 42.48 40.085L45.7495 34.4325C46.1866 33.6625 45.9942 32.7 45.2949 32.1575L42.0429 29.69C42.0953 29.2875 42.1128 28.9025 42.1128 28.5ZM29.0699 34.625C25.6956 34.625 22.9506 31.8775 22.9506 28.5C22.9506 25.1225 25.6956 22.375 29.0699 22.375C32.4443 22.375 35.1893 25.1225 35.1893 28.5C35.1893 31.8775 32.4443 34.625 29.0699 34.625Z" fill="#F8F8F8"/>
</svg>
