<svg width="58" height="58" viewBox="0 0 58 58" fill="none" xmlns="http://www.w3.org/2000/svg">
<rect width="57.0807" height="57.0807" rx="14.2702" fill="url(#paint0_linear_222_458)"/>
<path d="M21.5439 39.0354C19.5428 39.0354 17.9237 40.6731 17.9237 42.6748C17.9237 44.6764 19.5428 46.3141 21.5439 46.3141C23.545 46.3141 25.1823 44.6764 25.1823 42.6748C25.1823 40.6731 23.545 39.0354 21.5439 39.0354ZM10.6288 11.74C10.6288 12.7408 11.4474 13.5597 12.448 13.5597H14.2672L20.8163 27.3711L18.3603 31.8112C17.0323 34.2496 18.7788 37.2157 21.5439 37.2157H41.555C42.5556 37.2157 43.3742 36.3968 43.3742 35.396C43.3742 34.3952 42.5556 33.5763 41.555 33.5763H21.5439L23.545 29.9369H37.098C38.4624 29.9369 39.6631 29.1908 40.2816 28.0626L46.7943 16.2528C46.9476 15.977 47.0263 15.6659 47.0225 15.3504C47.0187 15.0348 46.9326 14.7257 46.7727 14.4536C46.6129 14.1816 46.3847 13.956 46.1109 13.7992C45.8371 13.6424 45.5271 13.5598 45.2116 13.5597H18.2876L17.0687 10.9575C16.9225 10.6469 16.6909 10.3844 16.4009 10.2007C16.111 10.017 15.7747 9.91974 15.4315 9.92029H12.448C11.4474 9.92029 10.6288 10.7392 10.6288 11.74ZM39.7359 39.0354C37.7347 39.0354 36.1157 40.6731 36.1157 42.6748C36.1157 44.6764 37.7347 46.3141 39.7359 46.3141C41.737 46.3141 43.3742 44.6764 43.3742 42.6748C43.3742 40.6731 41.737 39.0354 39.7359 39.0354Z" fill="#F5F5F5"/>
<defs>
<linearGradient id="paint0_linear_222_458" x1="0" y1="0" x2="57.0807" y2="57.0807" gradientUnits="userSpaceOnUse">
<stop stop-color="#5300DC"/>
<stop offset="1" stop-color="#11005B"/>
</linearGradient>
</defs>
</svg>
