<svg width="29" height="29" viewBox="0 0 29 29" fill="none" xmlns="http://www.w3.org/2000/svg">
<rect width="29" height="29" rx="7.25" fill="url(#paint0_linear_278_1300)"/>
<path d="M10.6251 10.3684C10.1806 10.3684 9.95707 10.9049 10.27 11.2205L11.345 12.3045C11.5383 12.4994 11.5383 12.8137 11.345 13.0086L10.784 13.5743C10.5884 13.7716 10.2695 13.7716 10.0739 13.5743L6.34914 9.81824C6.15584 9.62332 6.15584 9.30901 6.34914 9.11409L10.0739 5.35801C10.2695 5.16077 10.5884 5.16077 10.784 5.35801L11.345 5.92372C11.5383 6.11864 11.5383 6.43294 11.345 6.62786L10.27 7.71184C9.95707 8.02742 10.1806 8.56391 10.6251 8.56391H15.8421C17.7405 8.56391 19.5611 9.32438 20.9035 10.678C22.2459 12.0317 23 13.8676 23 15.782C23 17.6963 22.2459 19.5322 20.9035 20.8859C19.5611 22.2395 17.7405 23 15.8421 23H8.28947C8.01333 23 7.78947 22.7761 7.78947 22.5V21.6955C7.78947 21.4193 8.01333 21.1955 8.28947 21.1955H15.8421C17.2659 21.1955 18.6314 20.6251 19.6382 19.6099C20.6449 18.5947 21.2105 17.2177 21.2105 15.782C21.2105 14.3462 20.6449 12.9692 19.6382 11.954C18.6314 10.9388 17.2659 10.3684 15.8421 10.3684H10.6251Z" fill="#F5F5F5"/>
<defs>
<linearGradient id="paint0_linear_278_1300" x1="0" y1="0" x2="29" y2="29" gradientUnits="userSpaceOnUse">
<stop stop-color="#5300DC"/>
<stop offset="1" stop-color="#11005B"/>
</linearGradient>
</defs>
</svg>
