<svg width="58" height="58" viewBox="0 0 58 58" fill="none" xmlns="http://www.w3.org/2000/svg">
<rect y="0.482788" width="57.0807" height="57.0807" rx="14.2702" fill="url(#paint0_linear_254_240)"/>
<path d="M44.3898 30.3035H44.9333C45.0258 30.3051 45.1169 30.3261 45.2007 30.3651C45.2845 30.4042 45.3592 30.4604 45.4198 30.5302C45.4803 30.6 45.5255 30.6817 45.5524 30.77C45.5792 30.8583 45.5871 30.9513 45.5755 31.0429C45.0933 34.9479 43.2778 38.5681 40.4346 41.2943C37.5913 44.0206 33.8938 45.6866 29.964 46.012C29.7906 44.0163 30.0347 42.0065 30.6808 40.1099C31.3268 38.2133 32.3608 36.4713 33.7171 34.9944C35.0734 33.5175 36.7224 32.3379 38.5597 31.5304C40.3969 30.7229 42.3822 30.3051 44.3898 30.3035ZM32.286 32.6861C33.869 31.0908 35.7546 29.826 37.8327 28.9655C39.9108 28.1051 42.1399 27.6662 44.3898 27.6745H44.9003C44.994 27.6773 45.0873 27.6601 45.1738 27.6241C45.2603 27.588 45.3381 27.534 45.4021 27.4656C45.466 27.3971 45.5145 27.3159 45.5444 27.2272C45.5743 27.1386 45.5849 27.0445 45.5755 26.9515C45.1164 23.1491 43.3916 19.6106 40.6775 16.9024C37.9634 14.1943 34.417 12.4734 30.6063 12.0153C30.513 12.0059 30.4188 12.0165 30.3299 12.0463C30.2411 12.0762 30.1596 12.1246 30.091 12.1884C30.0224 12.2521 29.9683 12.3298 29.9322 12.4161C29.8961 12.5024 29.8789 12.5955 29.8817 12.689C29.9559 15.0197 29.5499 17.3408 28.6888 19.5086C27.8277 21.6764 26.5298 23.6448 24.8755 25.2919C23.2924 26.8872 21.4068 28.152 19.3287 29.0124C17.2506 29.8729 15.0215 30.3118 12.7716 30.3035H12.2611C12.1674 30.3007 12.0742 30.3179 11.9876 30.3539C11.9011 30.3899 11.8233 30.4439 11.7594 30.5124C11.6955 30.5808 11.6469 30.6621 11.617 30.7507C11.5871 30.8394 11.5765 30.9334 11.5859 31.0265C12.0451 34.8288 13.7698 38.3674 16.4839 41.0755C19.198 43.7836 22.7444 45.5045 26.5552 45.9627C26.6485 45.9721 26.7427 45.9615 26.8315 45.9316C26.9204 45.9018 27.0018 45.8534 27.0704 45.7896C27.139 45.7258 27.1932 45.6482 27.2293 45.5618C27.2654 45.4755 27.2826 45.3825 27.2798 45.289C27.2055 42.9583 27.6115 40.6372 28.4727 38.4694C29.3338 36.3015 30.6317 34.3332 32.286 32.6861ZM23.0146 23.4351C24.4315 22.0267 25.5394 20.3398 26.268 18.4813C26.9966 16.6229 27.3299 14.6335 27.2468 12.6397C27.2408 12.5502 27.2165 12.4629 27.1754 12.3832C27.1344 12.3034 27.0774 12.2329 27.0079 12.176C26.9385 12.119 26.8582 12.0768 26.7718 12.052C26.6854 12.0272 26.5949 12.0203 26.5058 12.0317C22.7102 12.4951 19.1793 14.2125 16.4754 16.9104C13.7715 19.6083 12.0503 23.1315 11.5859 26.9186C11.5745 27.0089 11.5819 27.1005 11.6077 27.1877C11.6336 27.275 11.6773 27.3559 11.7361 27.4254C11.7949 27.4949 11.8676 27.5515 11.9495 27.5915C12.0313 27.6316 12.1206 27.6542 12.2117 27.658C14.207 27.7366 16.197 27.402 18.0563 26.6752C19.9156 25.9484 21.6038 24.8452 23.0146 23.4351Z" fill="#F5F5F5"/>
<defs>
<linearGradient id="paint0_linear_254_240" x1="0" y1="0.482788" x2="57.0807" y2="57.5635" gradientUnits="userSpaceOnUse">
<stop stop-color="#5300DC"/>
<stop offset="1" stop-color="#11005B"/>
</linearGradient>
</defs>
</svg>
