<svg width="24" height="24" viewBox="0 0 24 24" fill="none" xmlns="http://www.w3.org/2000/svg">
<circle cx="12" cy="12" r="12" fill="url(#paint0_linear_278_1065)"/>
<path d="M14.06 7.50463C13.9967 7.44114 13.9214 7.39076 13.8386 7.35639C13.7558 7.32201 13.667 7.30432 13.5773 7.30432C13.4876 7.30432 13.3988 7.32201 13.316 7.35639C13.2331 7.39076 13.1579 7.44114 13.0946 7.50463L8.50729 12.0919C8.45673 12.1424 8.41661 12.2023 8.38924 12.2683C8.36187 12.3343 8.34778 12.405 8.34778 12.4764C8.34778 12.5479 8.36187 12.6186 8.38924 12.6846C8.41661 12.7506 8.45673 12.8105 8.50729 12.861L13.0946 17.4483C13.3618 17.7155 13.7927 17.7155 14.06 17.4483C14.3273 17.181 14.3273 16.7501 14.06 16.4828L10.0564 12.4792L14.0655 8.47009C14.3273 8.20281 14.3273 7.7719 14.06 7.50463Z" fill="#E4E4E9"/>
<defs>
<linearGradient id="paint0_linear_278_1065" x1="0" y1="0" x2="24" y2="24" gradientUnits="userSpaceOnUse">
<stop stop-color="#5300DC"/>
<stop offset="1" stop-color="#11005B"/>
</linearGradient>
</defs>
</svg>
